<svg width="2591" height="500" viewBox="0 0 2591 500" fill="none" xmlns="http://www.w3.org/2000/svg">
<path d="M395.336 277.325H448.314C448.314 323.612 485.677 355.48 538.178 355.48C587.254 355.48 623.024 329.826 623.024 292.461C623.024 192 400.992 255.097 400.992 111.695C400.992 49.2354 456.201 4.54395 531.009 4.54395C617.528 4.54395 664.375 58.0791 664.375 122.292H609.164C608.048 83.8119 576.261 55.3712 529.336 55.3712C482.412 55.3712 453.492 78.2345 453.492 111.695C453.492 203.234 676.64 140.136 676.64 292.461C676.64 358.267 617.529 406.307 538.26 406.307C458.99 406.307 395.414 351.657 395.414 277.407" fill="#160C51"/>
<path d="M960.019 128.349L804.266 499.999H749.058L797.019 391.171L687.156 128.349H742.364L823.308 331.502L904.73 128.349H960.019Z" fill="#160C51"/>
<path d="M976.125 316.92H1025.2C1028.54 343.689 1053.64 361.535 1088.22 361.535C1122.79 361.535 1143.98 345.919 1143.98 323.055C1143.98 255.576 982.178 306.882 982.178 203.074C982.178 156.787 1021.22 122.69 1082.08 122.69C1136.18 122.69 1183.1 152.246 1189.79 204.747H1137.93C1134.59 182.998 1112.28 166.267 1081.05 166.267C1052.61 166.267 1032.53 179.092 1032.53 199.169C1032.53 263.859 1194.34 209.208 1194.34 321.938C1194.34 370.456 1149.72 406.228 1090.53 406.228C1026.95 406.228 981.702 372.21 976.125 316.92Z" fill="#160C51"/>
<path d="M1319.3 177.503V303.058C1319.3 340.98 1341.61 355.48 1373.95 355.48C1380.09 355.48 1387.33 354.924 1392.91 353.251V400.651C1384.55 402.882 1372.83 403.997 1363.35 403.997C1305.91 403.997 1267.91 370.54 1267.91 304.097V177.422H1214.93V128.349H1267.91V54.6558H1319.22V128.349H1392.83V177.422H1319.22L1319.3 177.503Z" fill="#160C51"/>
<path d="M1702.61 128.349V400.652H1651.31V344.884C1631.23 383.921 1595.54 406.23 1547.5 406.23C1473.89 406.23 1415.25 343.212 1415.25 264.5C1415.25 185.788 1473.81 122.771 1547.5 122.771C1595.46 122.771 1631.23 145.079 1651.31 184.116V128.349H1702.61ZM1650.75 253.985C1646.21 209.132 1612.99 176.468 1567.9 172.326C1513.16 167.307 1466.16 208.253 1465.44 263.224C1464.73 316.602 1507.11 358.509 1560.65 357.075C1615.62 355.641 1656.25 308.717 1650.75 253.985Z" fill="#160C51"/>
<path d="M1825.87 10.0415H1774.01V400.652H1825.87V10.0415Z" fill="#160C51"/>
<path d="M1949.19 128.349H1897.33V400.651H1949.19V128.349Z" fill="#160C51"/>
<path d="M2273.42 244.98V400.652H2222.11V250.558C2222.11 203.156 2193.11 171.925 2147.94 171.925C2102.77 171.925 2072.65 203.156 2072.65 250.558V400.652H2020.79V128.349H2072.65V175.749C2089.94 142.288 2120.61 122.771 2159.73 122.771C2230 122.771 2273.58 169.614 2273.58 244.98" fill="#160C51"/>
<path d="M2523.33 400.652L2397.21 270.635V400.652H2345.35V10.0415H2397.21V247.77L2517.75 128.349H2581.89L2448.52 258.922L2590.81 400.652H2523.33Z" fill="#160C51"/>
<path d="M1949.91 40.8721H1897.33V93.4498H1949.91V40.8721Z" fill="#160C51"/>
<path d="M89.3075 286.886H0V156.072C60.946 95.1262 95.1223 60.946 156.068 0H286.883V89.3075H89.3075V286.886Z" fill="#1265DD"/>
<path d="M197.626 121.174H286.933V251.992C225.987 312.938 191.807 347.114 130.861 408.06H0.046875V318.753H197.626V121.174Z" fill="#1265DD"/>
</svg>
